<svg version="1.2" baseProfile="tiny-ps" xmlns="http://www.w3.org/2000/svg" viewBox="0 0 38 20" width="38" height="20"><title>logo</title><defs><linearGradient id="grd1" gradientUnits="userSpaceOnUse"  x1="18.906" y1="20.016" x2="18.906" y2="-0.039"><stop offset="0" stop-color="#3c82f8"  /><stop offset="1" stop-color="#8132e3"  /></linearGradient></defs><style>tspan { white-space:pre }.shp0 { fill: url(#grd1) } </style><g ><path fill-rule="evenodd" class="shp0" d="M10 -0.04C12.79 -0.04 15.92 2.5 18.35 5.02L21.33 8.47C21.33 8.47 21.32 8.48 21.32 8.48C21.32 8.48 21.8 9.07 22.52 9.86L22.6 9.95L22.6 9.94C24.07 11.54 26.48 13.87 28.04 13.87C30.42 13.87 32.38 12.37 32.38 9.99C32.38 7.61 30.45 5.68 28.07 5.68C26.75 5.68 25.06 7.56 23.73 8.82L19.99 4.55C22.31 2.19 25.2 -0.03 27.81 -0.03C33.35 -0.03 37.83 4.46 37.83 9.99C37.83 15.53 33.35 20.02 27.81 20.02C24.79 20.02 21.39 17.03 18.93 14.32C16.44 17.03 13.02 20.01 10 20.01C4.47 20.01 -0.02 15.52 -0.02 9.99C-0.02 4.45 4.47 -0.04 10 -0.04ZM5.54 9.99C5.54 12.36 7.47 14.29 9.85 14.29C12.16 14.29 15.28 10.26 15.49 10C15.48 9.99 15.48 9.99 15.48 9.99C15.48 9.99 15.48 9.99 15.49 9.98C15.35 9.79 12.18 5.68 9.85 5.68C7.47 5.68 5.54 7.61 5.54 9.99Z" /></g></svg>